<mxfile host="Electron" agent="Mozilla/5.0 (Windows NT 10.0; Win64; x64) AppleWebKit/537.36 (KHTML, like Gecko) draw.io/24.7.8 Chrome/128.0.6613.36 Electron/32.0.1 Safari/537.36" version="24.7.8">
  <diagram name="Page-1" id="8AsdUAwvimTBG6HQz__T">
    <mxGraphModel dx="1221" dy="823" grid="1" gridSize="10" guides="1" tooltips="1" connect="1" arrows="1" fold="1" page="1" pageScale="1" pageWidth="850" pageHeight="1100" math="0" shadow="0">
      <root>
        <mxCell id="0" />
        <mxCell id="1" parent="0" />
        <mxCell id="Q-QuKbzT-SG28BBoV_Qp-1" value="Open/Close Windows" style="text;html=1;align=center;verticalAlign=middle;whiteSpace=wrap;rounded=0;fontSize=16;" vertex="1" parent="1">
          <mxGeometry x="40" y="40" width="160" height="60" as="geometry" />
        </mxCell>
        <mxCell id="Q-QuKbzT-SG28BBoV_Qp-6" value="User Has Access to the Car" style="edgeStyle=orthogonalEdgeStyle;rounded=0;orthogonalLoop=1;jettySize=auto;html=1;exitX=1;exitY=0.5;exitDx=0;exitDy=0;entryX=0;entryY=0.5;entryDx=0;entryDy=0;" edge="1" parent="1" source="Q-QuKbzT-SG28BBoV_Qp-2" target="Q-QuKbzT-SG28BBoV_Qp-5">
          <mxGeometry y="10" relative="1" as="geometry">
            <mxPoint as="offset" />
          </mxGeometry>
        </mxCell>
        <mxCell id="Q-QuKbzT-SG28BBoV_Qp-7" value="User doesn&#39;t have access to the car" style="edgeStyle=orthogonalEdgeStyle;rounded=0;orthogonalLoop=1;jettySize=auto;html=1;exitX=0.75;exitY=1;exitDx=0;exitDy=0;entryX=0;entryY=0.5;entryDx=0;entryDy=0;" edge="1" parent="1" source="Q-QuKbzT-SG28BBoV_Qp-2" target="Q-QuKbzT-SG28BBoV_Qp-4">
          <mxGeometry x="0.3333" y="10" relative="1" as="geometry">
            <mxPoint as="offset" />
          </mxGeometry>
        </mxCell>
        <mxCell id="Q-QuKbzT-SG28BBoV_Qp-2" value="User Selected a Car" style="rounded=1;whiteSpace=wrap;html=1;" vertex="1" parent="1">
          <mxGeometry x="160" y="120" width="120" height="60" as="geometry" />
        </mxCell>
        <mxCell id="Q-QuKbzT-SG28BBoV_Qp-3" value="" style="endArrow=classic;html=1;rounded=0;entryX=0;entryY=0.5;entryDx=0;entryDy=0;" edge="1" parent="1" target="Q-QuKbzT-SG28BBoV_Qp-2">
          <mxGeometry width="50" height="50" relative="1" as="geometry">
            <mxPoint x="80" y="150" as="sourcePoint" />
            <mxPoint x="100" y="125" as="targetPoint" />
          </mxGeometry>
        </mxCell>
        <mxCell id="Q-QuKbzT-SG28BBoV_Qp-4" value="Error Message" style="rounded=1;whiteSpace=wrap;html=1;" vertex="1" parent="1">
          <mxGeometry x="440" y="230" width="120" height="60" as="geometry" />
        </mxCell>
        <mxCell id="Q-QuKbzT-SG28BBoV_Qp-10" value="Windows are Open" style="edgeStyle=orthogonalEdgeStyle;rounded=0;orthogonalLoop=1;jettySize=auto;html=1;exitX=0.75;exitY=0;exitDx=0;exitDy=0;entryX=0;entryY=0.5;entryDx=0;entryDy=0;" edge="1" parent="1" source="Q-QuKbzT-SG28BBoV_Qp-5" target="Q-QuKbzT-SG28BBoV_Qp-8">
          <mxGeometry relative="1" as="geometry" />
        </mxCell>
        <mxCell id="Q-QuKbzT-SG28BBoV_Qp-11" value="Windows are Closed" style="edgeStyle=orthogonalEdgeStyle;rounded=0;orthogonalLoop=1;jettySize=auto;html=1;exitX=0.75;exitY=1;exitDx=0;exitDy=0;entryX=0;entryY=0.5;entryDx=0;entryDy=0;" edge="1" parent="1" source="Q-QuKbzT-SG28BBoV_Qp-5" target="Q-QuKbzT-SG28BBoV_Qp-9">
          <mxGeometry relative="1" as="geometry" />
        </mxCell>
        <mxCell id="Q-QuKbzT-SG28BBoV_Qp-5" value="User selects window button" style="rounded=1;whiteSpace=wrap;html=1;" vertex="1" parent="1">
          <mxGeometry x="440" y="120" width="120" height="60" as="geometry" />
        </mxCell>
        <mxCell id="Q-QuKbzT-SG28BBoV_Qp-8" value="Close Windows" style="rounded=1;whiteSpace=wrap;html=1;" vertex="1" parent="1">
          <mxGeometry x="680" y="60" width="120" height="60" as="geometry" />
        </mxCell>
        <mxCell id="Q-QuKbzT-SG28BBoV_Qp-9" value="Open Windows" style="rounded=1;whiteSpace=wrap;html=1;" vertex="1" parent="1">
          <mxGeometry x="680" y="170" width="120" height="60" as="geometry" />
        </mxCell>
        <mxCell id="Q-QuKbzT-SG28BBoV_Qp-12" value="Create a car" style="text;html=1;align=center;verticalAlign=middle;whiteSpace=wrap;rounded=0;fontSize=16;" vertex="1" parent="1">
          <mxGeometry x="40" y="400" width="160" height="60" as="geometry" />
        </mxCell>
        <mxCell id="Q-QuKbzT-SG28BBoV_Qp-13" value="New Car is Added" style="edgeStyle=orthogonalEdgeStyle;rounded=0;orthogonalLoop=1;jettySize=auto;html=1;exitX=1;exitY=0.5;exitDx=0;exitDy=0;entryX=0;entryY=0.5;entryDx=0;entryDy=0;" edge="1" parent="1" source="Q-QuKbzT-SG28BBoV_Qp-15" target="Q-QuKbzT-SG28BBoV_Qp-20">
          <mxGeometry y="10" relative="1" as="geometry">
            <mxPoint as="offset" />
          </mxGeometry>
        </mxCell>
        <mxCell id="Q-QuKbzT-SG28BBoV_Qp-15" value="User clicks add new car" style="rounded=1;whiteSpace=wrap;html=1;" vertex="1" parent="1">
          <mxGeometry x="160" y="480" width="120" height="60" as="geometry" />
        </mxCell>
        <mxCell id="Q-QuKbzT-SG28BBoV_Qp-16" value="" style="endArrow=classic;html=1;rounded=0;entryX=0;entryY=0.5;entryDx=0;entryDy=0;" edge="1" parent="1" target="Q-QuKbzT-SG28BBoV_Qp-15">
          <mxGeometry width="50" height="50" relative="1" as="geometry">
            <mxPoint x="80" y="510" as="sourcePoint" />
            <mxPoint x="100" y="485" as="targetPoint" />
          </mxGeometry>
        </mxCell>
        <mxCell id="Q-QuKbzT-SG28BBoV_Qp-28" value="User added a Driver" style="edgeStyle=orthogonalEdgeStyle;rounded=0;orthogonalLoop=1;jettySize=auto;html=1;exitX=1;exitY=0.5;exitDx=0;exitDy=0;entryX=0;entryY=0.5;entryDx=0;entryDy=0;" edge="1" parent="1" source="Q-QuKbzT-SG28BBoV_Qp-20" target="Q-QuKbzT-SG28BBoV_Qp-26">
          <mxGeometry relative="1" as="geometry" />
        </mxCell>
        <mxCell id="Q-QuKbzT-SG28BBoV_Qp-34" value="User doesn&#39;t add a Driver" style="edgeStyle=orthogonalEdgeStyle;rounded=0;orthogonalLoop=1;jettySize=auto;html=1;exitX=0.5;exitY=1;exitDx=0;exitDy=0;entryX=0;entryY=0.5;entryDx=0;entryDy=0;" edge="1" parent="1" source="Q-QuKbzT-SG28BBoV_Qp-20" target="Q-QuKbzT-SG28BBoV_Qp-27">
          <mxGeometry relative="1" as="geometry" />
        </mxCell>
        <mxCell id="Q-QuKbzT-SG28BBoV_Qp-20" value="User inputs data" style="rounded=1;whiteSpace=wrap;html=1;" vertex="1" parent="1">
          <mxGeometry x="400" y="480" width="120" height="60" as="geometry" />
        </mxCell>
        <mxCell id="Q-QuKbzT-SG28BBoV_Qp-30" value="Diver is in the system" style="edgeStyle=orthogonalEdgeStyle;rounded=0;orthogonalLoop=1;jettySize=auto;html=1;exitX=0.5;exitY=1;exitDx=0;exitDy=0;entryX=0.5;entryY=0;entryDx=0;entryDy=0;" edge="1" parent="1" source="Q-QuKbzT-SG28BBoV_Qp-26" target="Q-QuKbzT-SG28BBoV_Qp-27">
          <mxGeometry relative="1" as="geometry" />
        </mxCell>
        <mxCell id="Q-QuKbzT-SG28BBoV_Qp-32" value="Driver is not in System" style="edgeStyle=orthogonalEdgeStyle;rounded=0;orthogonalLoop=1;jettySize=auto;html=1;exitX=1;exitY=0.5;exitDx=0;exitDy=0;entryX=0;entryY=0.5;entryDx=0;entryDy=0;" edge="1" parent="1" source="Q-QuKbzT-SG28BBoV_Qp-26" target="Q-QuKbzT-SG28BBoV_Qp-31">
          <mxGeometry relative="1" as="geometry" />
        </mxCell>
        <mxCell id="Q-QuKbzT-SG28BBoV_Qp-26" value="System checks if driver exists" style="rounded=1;whiteSpace=wrap;html=1;" vertex="1" parent="1">
          <mxGeometry x="660" y="480" width="120" height="60" as="geometry" />
        </mxCell>
        <mxCell id="Q-QuKbzT-SG28BBoV_Qp-27" value="A new Car is created" style="rounded=1;whiteSpace=wrap;html=1;" vertex="1" parent="1">
          <mxGeometry x="660" y="600" width="120" height="60" as="geometry" />
        </mxCell>
        <mxCell id="Q-QuKbzT-SG28BBoV_Qp-33" value="New Driver added to Car" style="edgeStyle=orthogonalEdgeStyle;rounded=0;orthogonalLoop=1;jettySize=auto;html=1;exitX=0.5;exitY=1;exitDx=0;exitDy=0;entryX=1;entryY=0.5;entryDx=0;entryDy=0;" edge="1" parent="1" source="Q-QuKbzT-SG28BBoV_Qp-31" target="Q-QuKbzT-SG28BBoV_Qp-27">
          <mxGeometry relative="1" as="geometry" />
        </mxCell>
        <mxCell id="Q-QuKbzT-SG28BBoV_Qp-31" value="New Driver is created" style="rounded=1;whiteSpace=wrap;html=1;" vertex="1" parent="1">
          <mxGeometry x="940" y="480" width="120" height="60" as="geometry" />
        </mxCell>
      </root>
    </mxGraphModel>
  </diagram>
</mxfile>
